<svg id="reengage-logo" xmlns="http://www.w3.org/2000/svg" viewBox="0 0 160.5 70" preserveAspectRatio="xMinYMin meet">
  <g>
    <path id="reengage-logo__bubble" fill="#fc4c02" d="M93.9 69.8s14.9-6.5 15.1-6.8c4 2.3 8.5 3.8 13.1 4.4 19.3 2.5 35.5-10 38.1-29 2.5-19.3-10-35.5-29.2-38.1-19.1-2.5-35.4 10-37.9 29.3-1.1 7.8.5 15.8 4.6 22.5l-6.2 15.3c-.4 1 0 2.1 1 2.5.4.1.9.1 1.4-.1z"></path>
    <g id="reengage-logo__re" fill="#fc4c02">
      <path id="re__r" d="M18.3 42.4h-4.1c-.6.1-1.2-.2-1.6-.8l-4.9-7.5H5.6v7.3c.1.5-.3.9-.7 1H1c-.7 0-1-.3-1-1V19.3c0-.9.2-1.2 1.2-1.2h5.3c3 0 6.6.2 8.7 2.6 1.2 1.5 1.9 3.3 1.9 5.2.2 3-1.5 5.8-4.2 7.2v.1l5.8 8.2c.1.2.2.4.2.6 0 .3-.3.4-.6.4zM6.9 22.3H5.6V30h1.8c2.6 0 4.1-1.4 4.1-4 0-2.7-1.9-3.7-4.6-3.7z"></path>
      <path id="re__e" d="M33.8 35.3H24c.5 2.1 2.4 3.6 4.5 3.4 1.5 0 3-.3 4.4-.9.1-.1.3-.1.4-.1.3 0 .5.2.6.5.3.9.5 1.8.7 2.7 0 .5-.3.6-.7.8-2 .8-4.2 1.2-6.3 1.2-5.6 0-9.1-3.4-9.1-9.1 0-5.4 3.7-9 9.1-9 2-.1 4 .8 5.4 2.2 1.8 1.9 2.1 4.3 2.1 6.7v.5c0 .9-.4 1.1-1.3 1.1zm-6.6-6.4c-1.7.1-3 1.4-3.2 3.1h5.9c.1-1.5-1-2.9-2.5-3 0-.1-.1-.1-.2-.1z"></path>
    </g>
    <g id="reengage-logo__engage" fill="#201547">
      <path id="engage__e" d="M52.2 35.3h-9.8c.5 2.1 2.4 3.6 4.5 3.4 1.5 0 3-.3 4.4-.9.1-.1.3-.1.4-.1.3 0 .5.2.6.5.3.9.5 1.8.7 2.7 0 .5-.3.6-.7.8-2 .8-4.2 1.2-6.3 1.2-5.6 0-9.1-3.4-9.1-9.1 0-5.4 3.7-9 9.1-9 2-.1 4 .8 5.4 2.2 1.8 1.9 2.1 4.3 2.1 6.7v.5c-.1.9-.5 1.1-1.3 1.1zm-6.6-6.4c-1.7.1-3 1.4-3.2 3.1h5.9c.1-1.5-1-2.9-2.5-3-.1-.1-.2-.1-.2-.1z"></path>
      <path id="engage__n" d="M70.7 42.4h-3.2c-.7 0-1-.4-1-1.1V32c0-1.5-.4-2.5-2-2.5-1.3 0-2.6.5-3.6 1.4v10.5c0 .7-.3 1-1 1h-3.3c-.5.1-.9-.3-1-.8V26.3c0-.7.2-1 1-1h2.9c.5 0 .9.1 1 .7l.1.7c1.6-1.3 3.6-2 5.6-2 3.9 0 5.5 2.4 5.5 6.2v10.3c0 .9-.3 1.2-1 1.2z"></path>
      <path id="engage__g" d="M82.1 50.1c-1.9 0-3.7-.3-5.4-1.1-.5-.2-.6-.4-.6-.8 0-.2 0-.4.1-.6l.6-2c.1-.5.2-.7.5-.7.2 0 .5 0 .7.1 1.2.5 2.5.8 3.9.8 3.2 0 3.6-1.6 3.6-3.8v-1.3c-1.2.9-2.7 1.5-4.2 1.6-1.9.1-3.8-.6-5.2-2-1.6-1.7-2.4-4-2.2-6.3 0-4.7 2.7-9.3 7.9-9.3.8 0 1.6.2 2.4.5.7.3 1.2.8 1.7 1.4l.1-.8c0-.5.3-.7.9-.7h3c.7 0 1 .3 1 1V41c-.2 5.9-2.8 9.1-8.8 9.1zm3.3-19.8c-.7-.7-1.7-1.1-2.7-1.1-.8 0-1.6.3-2.2.9-.9 1.1-1.3 2.4-1.2 3.8-.1 1.3.3 2.6 1.2 3.5.6.5 1.3.8 2.1.8 1.1-.1 2.1-.5 2.9-1.3l-.1-6.6z"></path>
      <path id="engage__a" d="M110.3 42.4h-1.9c-2.1 0-2.9-.6-3.4-1.6-1.3 1.3-3.1 2-4.9 2.1-5.1 0-7.4-4-7.4-8.7 0-6.2 3.9-9.4 7.7-9.4 1.7-.1 3.2.7 4.3 2l.1-.8c0-.4.4-.7.8-.7h3.2c.4 0 .8.3.8.7v12.2c0 .4.1.6.5.6h.3c.5 0 .7.2.7.7v2c0 .4-.3.8-.7.8 0 .1-.1.1-.1.1zm-6-12c-.8-.7-1.8-1.1-2.8-1.2-1.7 0-3.3 1.4-3.3 4.7 0 2.2.6 4.8 3.2 4.8 1.1-.1 2.2-.6 2.9-1.5v-6.8z"></path>
      <path id="engage__g-2" d="M120.4 50.1c-1.9 0-3.7-.3-5.4-1.1-.5-.2-.6-.4-.6-.8 0-.2 0-.4.1-.6l.6-2c.1-.5.2-.7.5-.7.2 0 .5 0 .7.1 1.2.5 2.5.8 3.9.8 3.2 0 3.6-1.6 3.6-3.8v-1.3c-1.2.9-2.7 1.5-4.2 1.6-1.9.1-3.8-.6-5.2-2-1.6-1.7-2.4-4-2.2-6.3 0-4.7 2.7-9.3 7.9-9.3.8 0 1.6.2 2.4.5.7.3 1.2.8 1.7 1.4l.1-.8c0-.5.3-.7.9-.7h3c.7 0 1 .3 1 1V41c-.2 5.9-2.7 9.1-8.8 9.1zm3.4-19.8c-.7-.7-1.7-1.1-2.7-1.1-.8 0-1.6.3-2.2.9-.9 1.1-1.3 2.4-1.2 3.8-.1 1.3.3 2.6 1.2 3.5.6.5 1.3.8 2.1.8 1.1-.1 2.1-.5 2.9-1.3l-.1-6.6z"></path>
      <path id="engage__e-2" d="M146.3 35.3h-9.8c.5 2.1 2.4 3.6 4.5 3.4 1.5 0 3-.3 4.4-.9.1-.1.3-.1.4-.1.3 0 .5.2.6.5.3.9.5 1.8.7 2.7 0 .5-.3.6-.7.8-2 .8-4.2 1.2-6.3 1.2-5.6 0-9.1-3.4-9.1-9.1 0-5.4 3.7-9 9.1-9 2-.1 4 .8 5.4 2.2 1.8 1.9 2.1 4.3 2.1 6.7v.5c0 .9-.4 1.1-1.3 1.1zm-6.6-6.4c-1.7.1-3 1.4-3.2 3.1h5.9c.1-1.5-1-2.9-2.5-3 0-.1-.1-.1-.2-.1z"></path>
    </g>
  </g>
</svg>